<svg xmlns="http://www.w3.org/2000/svg" xmlns:xlink="http://www.w3.org/1999/xlink" id="Слой_1" x="0px" y="0px" viewBox="0 0 761.3 439.8" style="enable-background:new 0 0 761.3 439.8;" xml:space="preserve"> <style type="text/css"> .st0{fill:#FE4100;} .st1{fill:#460163;} .st2{fill-rule:evenodd;clip-rule:evenodd;fill:#460163;} </style> <g> <g> <path d="M607.7,5.5c6.9,5.2,16.6,5.2,23.5,0L627.4,0c-4.9,3.6-11.1,3.6-16,0L607.7,5.5z M637.6,58.5V13.8h-9.1l-18.4,30.5V13.8h-9 v44.7h9h0.1l18.3-30.3v30.3H637.6z"/> <path d="M334.2,44.6c0,3.9-3.9,6.3-7.4,6.3c-2.9,0-6.3-1.2-8.1-2.4V25.2v-0.8c2.1-2.1,6.2-3.3,8.7-3.3c3.5,0,6.9,2.5,6.9,6.4V44.6 z M343.6,43.6V28.2c0-9.7-5.2-15.2-14.8-15.2c-3.6,0-9.9,1.4-12.4,3.5c-0.8-1.4-1.7-2.8-3.5-3.5l-5.7,5.3c2.2,1.5,2.2,4.3,2.2,5.6 v49h9.3V57.2c2.8,1.4,7.2,1.9,9.4,1.9C336.8,59.2,343.6,53.7,343.6,43.6z"/> <path d="M373.2,48.2c-2.2,2.9-6.2,3.7-9.3,3.1c-2.4-0.4-4.4-2.8-4.4-5.4c-0.1-3.3,2-6.9,6.9-6.9l6.9,0V48.2z M427.3,58.5V13.7 h-30.7v27.7c0,5.6-3.5,10.3-8.4,10.5c-2.3,0.1-5.8-1.5-5.8-4.9V28.1c0-9.2-4.9-15.1-15.3-15.1c-7.1,0-12.6,3-15.6,6.1l4.9,6 c3.1-3,7.5-4.2,9.8-4.2c3.1,0,7,1.4,7,5.5v4.8h-7.6c-10.9,0-15.4,6.9-15.4,14.2c0,7,3.8,13.8,14.8,13.8c3.4,0,7.7-1.7,10.3-4.3 c4.4,4,8.5,4.7,13.2,4.6c10.6-0.3,17.3-6,17-18.3V21.4h12.8l0,37.1H427.3z"/> <polygon points="550,58.5 533.3,34.9 548.9,13.8 538.3,13.8 526.7,31.3 521,31.3 521,13.7 511.9,13.7 511.9,58.5 520.8,58.5 520.9,39 526.5,39 539.4,58.5 "/> <path d="M446,50.8l7.8,0c4.1,0,5.7-4.5,5.7-7.5c0-3-1.7-6.8-5.9-6.8H446V50.8z M436.7,58.6V13.7h9.3v15.2h6.6 c10.9,0,16.6,6.6,16.6,14.3c-0.1,7.6-5.5,15.4-16.4,15.4L436.7,58.6z"/> <path d="M506,53.4l-3.8-6.7c-5.3,3.7-8.4,4.8-11.1,4.8c-3.7,0-7.4-1.9-7.4-5.8V28.3c0-4,3.7-6.8,8-6.8c2.7,0,6.4,1.6,9.2,4.5 l4.8-6.1c-3.3-4-7.9-6.9-15.1-6.9c-9.2,0-16.2,5.6-16.2,15.3v16.8c0,9.5,7.4,14,16.4,14C498.3,59.2,503.3,55.6,506,53.4"/> <polygon points="591.7,58.5 591.7,13.8 582.6,13.8 564.2,44.3 564.2,13.8 555.2,13.8 555.2,58.5 564.2,58.5 564.3,58.5 582.6,28.2 582.6,58.5 "/> <path d="M306.9,0h-10.4l-8,26.6c-0.1,0.5-0.3,1-0.5,1.5c-0.1,0.5-0.2,1-0.3,1.3c-0.1,0.4-0.1,0.6-0.1,0.6c0,0,0-0.2-0.1-0.5 c-0.1-0.3-0.2-0.8-0.3-1.3c-0.1-0.5-0.2-1-0.5-1.5L275,0h-10.6l19,41.7l-1.2,3c-1.5,3.3-5.5,7-12.7,7.3l1.1,7.2 c10.5,0.2,17.4-4.4,20.1-12.2L306.9,0z"/> <path d="M729.4,81.2c6.9,5.2,16.6,5.2,23.5,0l-3.7-5.5c-4.9,3.6-11.1,3.6-16,0L729.4,81.2z M759.3,134.2V89.5h-9.1L731.9,120V89.5 h-9v44.7h9h0.1l18.3-30.3v30.3H759.3z"/> <rect x="704.3" y="89.5" width="9.1" height="44.7"/> <path d="M676.2,126.7l7.8,0c4.1,0,5.7-4.5,5.7-7.5c0-3-1.7-6.8-5.9-6.8h-7.7V126.7z M666.9,134.4V89.5h9.3l0,15.2h6.6 c10.9,0,16.6,6.6,16.6,14.3c-0.1,7.6-5.5,15.4-16.4,15.4H666.9z"/> <path d="M307.6,120.4c0,3.9-3.2,6.3-6.7,6.3c-2.9,0-4.5-1.1-5.4-2.5v-23.2v0v0v0v0v0v0v0v0v0v0v0v0v0v0v0v0v0v0v0v0v0v0v0v0v0v0v0 v0v0v0v0v0v0v0v0v0v0v0v0v0v0v0v0v0v0v0v0v0v0v0v0v0v0v0v0v0v0v0v0v0v0v0v0v0c0.8-1.4,3.5-2.7,5.9-2.7c3.5,0,6.2,2.5,6.2,6.4 V120.4z M286.2,99.6L286.2,99.6L286.2,99.6L286.2,99.6L286.2,99.6v0.1v0v0v0v0v0v0v0v0v0v0v0v0v0v0v0v0v0v0v0v0v0v0v0v0v0v0v0v0v0 v0v0v0v0v0v0v0v0v0v0v0v0v0v0v0v0v0v0v0v0v0v0v0v0v0v0v0v0v0v0v23.2c-0.9,1.4-2.5,2.5-5.4,2.5c-3.5,0-6.7-2.4-6.7-6.3v-17.1 c0-3.9,2.6-6.4,6.2-6.4C282.7,96.9,285.5,98.2,286.2,99.6z M317,119.4V104c0-9.7-4.5-15.2-14.1-15.2c-2.6,0-5.4,0.7-7.4,1.9v-8.4 h-9.3v8.4c-2-1.2-4.8-1.9-7.4-1.9c-9.6,0-14.1,5.5-14.1,15.2v15.4c0,10.1,6.1,15.5,14.8,15.5c2.2,0,5.7-1.1,6.7-1.9v15.6h9.3V133 c1,0.9,4.5,1.9,6.7,1.9C310.9,134.9,317,129.5,317,119.4z"/> <path d="M348.2,102.2v5.6h-13.8v-4.9c0-4,3.4-6.3,7.4-6.3C344.2,96.6,348.2,98.2,348.2,102.2 M358.5,129l-3.9-7 c-4.4,3.6-8.8,4.8-12.4,4.8c-4.4,0-7.9-2.4-7.9-7.3v-4.1h23.2v-10.9c0-11.3-7.2-15.7-15.8-15.7c-9.9,0-16.8,5.1-16.8,16.2v14.9 c0,10,6.5,15,16.5,15C348.8,134.9,353.3,132.5,358.5,129z"/> <path d="M376.7,126.7c2.3-2.5,3.7-7.3,3.6-12.1V97.2h12.8l0,29.5H376.7z M402.1,126.7V89.6h-30.7v24.7c0,5.6-3.3,12.3-8.2,12.4 h-0.9v18.5h8.8v-10.8h26.9v10.8h9.1v-18.5H402.1z"/> <polygon points="657.6,134.2 657.6,89.5 648.5,89.5 648.5,107 630.1,107 630.1,89.5 621,89.5 621,134.2 630.1,134.2 630.1,114.6 648.5,114.6 648.5,134.2 "/> <path d="M479.4,120.5c0,3.9-3.9,6.3-7.4,6.3c-2.9,0-6.3-1.2-8.1-2.5V101v-0.8c2.1-2.1,6.2-3.3,8.7-3.3c3.5,0,6.9,2.5,6.9,6.4 V120.5z M488.8,119.5v-15.4c0-9.7-5.2-15.2-14.8-15.2c-3.6,0-9.9,1.4-12.4,3.5c-0.8-1.4-1.7-2.8-3.5-3.5l-5.7,5.3 c2.2,1.5,2.2,4.3,2.2,5.6v49h9.3v-15.6c2.8,1.4,7.2,1.9,9.4,1.9C481.9,135,488.8,129.6,488.8,119.5z"/> <path d="M518.3,124c-3.4,4.4-13.6,5-13.7-2.3c-0.1-3.3,2-6.9,6.9-6.9l6.9,0V124z M572.5,134.3V89.5h-30.7v27.7 c0,5.6-3.5,10.3-8.4,10.5c-2.3,0.1-5.8-1.5-5.8-4.9V104c0-9.2-4.9-15.1-15.3-15.1c-7.1,0-12.6,3-15.6,6.1l4.9,6 c3.1-3,7.5-4.2,9.8-4.2c3.1,0,7,1.4,7,5.5v4.8h-7.6c-10.9,0-15.4,6.9-15.4,14.2c0,7,3.8,13.8,14.8,13.8c3.4,0,7.7-1.7,10.3-4.3 c4.4,4,8.5,4.7,13.2,4.6c10.5-0.3,17.3-6,17.1-18.3V97.2h12.8l0,37.1H572.5z"/> <path d="M591.2,126.7l7.8,0c4.1,0,5.7-4.5,5.7-7.5c0-3-1.7-6.8-5.9-6.8h-7.7V126.7z M581.9,134.4V89.5h9.3l0,15.2h6.6 c10.9,0,16.6,6.6,16.6,14.3c-0.1,7.6-5.5,15.4-16.4,15.4H581.9z"/> <path d="M436.4,102.2v5.6h-13.8v-4.9c0-4,3.4-6.3,7.4-6.3C432.4,96.6,436.4,98.2,436.4,102.2 M446.7,129l-3.9-7 c-4.4,3.6-8.8,4.8-12.4,4.8c-4.4,0-7.9-2.4-7.9-7.3v-4.1h23.2v-10.9c0-11.3-7.2-15.7-15.8-15.7c-9.9,0-16.8,5.1-16.8,16.2v14.9 c0,10,6.5,15,16.5,15C437,134.9,441.5,132.5,446.7,129z"/> <path d="M303,165.4H293l-9.1,34.7c0,0,0.1-2.6-1-6.3l-7.8-28.4l-10.3,0.1c0,0,12,37.8,14.8,44.5c-1.4,5.9-4.6,9.8-11.3,10.4 l0.9,6.8c10.3,0,16.1-5.5,18.2-12.4L303,165.4z"/> <polygon points="345.4,210.1 345.4,165.4 336.3,165.4 336.3,182.9 317.9,182.9 317.9,165.4 308.9,165.4 308.9,210.1 317.9,210.1 317.9,190.5 336.3,190.5 336.3,210.1 "/> <polygon points="391.3,210.1 391.3,165.4 382.2,165.4 363.8,195.9 363.8,165.4 354.8,165.4 354.8,210.1 363.8,210.1 363.9,210.1 382.2,179.8 382.2,210.1 "/> <path d="M409.9,202.3l7.8,0c4.1,0,5.7-3.3,5.7-6.3c0-3-1.7-5.6-5.9-5.6h-7.7V202.3z M409.9,173.2v9.6h6.7c3.7,0,4.7-2.5,4.7-4.8 c0-2.2-1.4-4.9-4.6-4.9L409.9,173.2z M400.7,210.1v-44.7h16c11,0,14.4,6.7,14.2,11.8c-0.2,5.1-3,7.7-5.5,8.9 c2.7,0.8,7.6,4.2,7.6,10.6c0,6.4-4.8,13.3-15.7,13.3H400.7z"/> <polygon points="603.9,165.4 603.9,173.1 615.1,173.1 615.1,210.2 615.7,210.2 624.2,210.2 624.8,210.2 624.8,173.1 636.1,173.1 636.1,165.4 "/> <polygon points="678,165.4 678,173.1 689.3,173.1 689.3,210.2 689.9,210.2 698.4,210.2 699,210.2 699,173.1 710.3,173.1 710.3,165.4 "/> <polygon points="597.1,210.1 597.1,165.4 588,165.4 569.6,195.9 569.6,165.4 560.6,165.4 560.6,210.1 569.6,210.1 569.7,210.1 588,179.8 588,210.1 "/> <path d="M505.6,196.2c0,3.9-3.9,6.3-7.4,6.3c-2.9,0-6.3-1.2-8.2-2.4v-23.2V176c2.1-2.1,6.2-3.3,8.7-3.3c3.5,0,6.9,2.5,6.9,6.4 V196.2z M515,195.2v-15.4c0-9.7-5.2-15.2-14.8-15.2c-3.6,0-9.9,1.4-12.4,3.5c-0.8-1.4-1.7-2.8-3.5-3.5l-5.7,5.3 c2.2,1.5,2.2,4.3,2.2,5.6v49h9.3v-15.6c2.8,1.4,7.2,1.9,9.4,1.9C508.2,210.8,515,205.3,515,195.2z"/> <path d="M554.7,204.9l-3.8-6.7c-5.3,3.7-8.4,4.8-11.1,4.8c-3.7,0-7.4-1.9-7.4-5.8v-17.4c0-4,3.7-6.8,8-6.8c2.7,0,6.4,1.6,9.2,4.5 l4.8-6.1c-3.3-4-7.9-6.9-15-6.9c-9.2,0-16.3,5.6-16.3,15.3v16.8c0,9.5,7.4,14,16.4,14C547,210.7,552.1,207.1,554.7,204.9"/> <path d="M664,177.9v5.6h-13.8v-4.9c0-4,3.4-6.3,7.4-6.3C660.1,172.3,664,174,664,177.9 M674.4,204.8l-3.9-7 c-4.4,3.6-8.8,4.8-12.4,4.8c-4.4,0-7.9-2.5-7.9-7.3v-4.1h23.2v-10.9c0-11.3-7.2-15.7-15.8-15.7c-9.9,0-16.8,5.1-16.8,16.2v14.9 c0,10,6.5,15,16.5,15C664.7,210.7,669.1,208.3,674.4,204.8z"/> <path d="M462.8,177.9v5.6H449v-4.9c0-4,3.4-6.3,7.4-6.3C458.8,172.3,462.8,174,462.8,177.9 M473.2,204.8l-3.9-7 c-4.4,3.6-8.8,4.8-12.4,4.8c-4.4,0-7.9-2.5-7.9-7.3v-4.1h23.2v-10.9c0-11.3-7.2-15.7-15.8-15.7c-9.9,0-16.8,5.1-16.8,16.2v14.9 c0,10,6.5,15,16.5,15C463.5,210.7,467.9,208.3,473.2,204.8z"/> </g> <g> <path d="M604.7,312.6h-10V323H591v-23.1h3.7v9.6h10v-9.6h3.7V323h-3.7V312.6z M583,306.1l-2.2,3.9l-7.7,13.1h-3.4v-23.1h3.4v17 l0.2,0.1l2.4-4.2l7.5-12.8h3.4V323h-3.4v-17H583z M550.5,319.8h9.8v-20h3.7v19.9l2.5,0.1l-0.1,10h-3.3L563,323h-16.1v-23.1h3.7 V319.8z M525.7,299.9h3.6v9.5h6c0.8,0,1.6,0.1,2.4,0.3c0.9,0.2,1.6,0.5,2.4,1c0.7,0.5,1.4,1.2,1.8,2c0.5,0.9,0.7,2,0.7,3.4 c0,1.3-0.3,2.4-0.7,3.3c-0.5,0.9-1.1,1.6-1.9,2.2c-0.8,0.6-1.6,1-2.5,1.2c-0.9,0.2-1.7,0.4-2.5,0.4h-9.4V299.9z M534.8,319.8 c0.4,0,0.9-0.1,1.4-0.2c0.5-0.1,1-0.3,1.4-0.6c0.4-0.3,0.8-0.7,1.1-1.2c0.3-0.5,0.4-1.1,0.4-1.8c0-0.7-0.1-1.2-0.4-1.7 c-0.2-0.5-0.6-0.8-1-1.1c-0.4-0.3-0.9-0.5-1.4-0.6c-0.5-0.1-1.1-0.2-1.7-0.2h-5.2v7.4H534.8z M509.4,303.1v5.3 c0,2.4-0.1,4.5-0.3,6.2c-0.2,1.7-0.5,3.2-1,4.4c-0.5,1.2-1.2,2.2-2,3c-0.8,0.8-1.9,1.6-3.2,2.2l-1.4-2.6c1-0.7,1.8-1.5,2.4-2.2 c0.6-0.7,1.1-1.6,1.4-2.5c0.3-0.9,0.5-2,0.6-3.3c0.1-1.3,0.1-2.8,0.1-4.6v-9.1h14.4V323h-3.7v-20H509.4z M483.3,290h17v3.5h-13.1 V304h11.5v3.5h-11.5v12h13.1v3.5h-17V290z M471.6,323.5c-0.8,0-1.5-0.3-2.1-0.9c-0.6-0.6-0.9-1.3-0.9-2.1c0-0.8,0.3-1.6,0.9-2.1 c0.6-0.6,1.3-0.9,2.1-0.9c0.8,0,1.6,0.3,2.1,0.9c0.6,0.6,0.9,1.3,0.9,2.1c0,0.8-0.3,1.5-0.9,2.1 C473.2,323.2,472.5,323.5,471.6,323.5z M459.8,307.6h-12.7V323H443v-33h4.1v14.1h12.7V290h4.1v33h-4.1V307.6z M431.7,323.5 c-0.8,0-1.5-0.3-2.1-0.9c-0.6-0.6-0.9-1.3-0.9-2.1c0-0.8,0.3-1.6,0.9-2.1c0.6-0.6,1.3-0.9,2.1-0.9c0.8,0,1.6,0.3,2.1,0.9 c0.6,0.6,0.9,1.3,0.9,2.1c0,0.8-0.3,1.5-0.9,2.1C433.2,323.2,432.5,323.5,431.7,323.5z M414,319.6c0.7,0,1.4-0.1,2.2-0.3 c0.8-0.2,1.5-0.6,2.2-1c0.7-0.5,1.2-1.1,1.6-2c0.4-0.8,0.6-1.8,0.6-3.1c0-1.2-0.2-2.2-0.6-2.9c-0.4-0.8-1-1.4-1.7-1.8 c-0.7-0.4-1.5-0.7-2.3-0.9c-0.9-0.2-1.7-0.3-2.6-0.3h-4.8v12.2H414z M404.6,290h16.9v3.5h-12.8v10.4h6.1c0.9,0,1.9,0.1,3.1,0.3 c1.2,0.2,2.2,0.7,3.3,1.3c1,0.7,1.9,1.6,2.6,2.9c0.7,1.2,1.1,2.9,1.1,4.9c0,2-0.4,3.6-1.1,4.9c-0.8,1.3-1.7,2.2-2.7,2.9 c-1.1,0.7-2.2,1.2-3.4,1.5c-1.2,0.3-2.3,0.4-3.2,0.4h-9.6V290z M384.1,306.1l-2.2,3.9l-7.7,13.1h-3.4v-23.1h3.4v17l0.2,0.1 l2.4-4.2l7.5-12.8h3.4V323h-3.4v-17H384.1z M362.7,306.1l-2.2,3.9l-7.7,13.1h-3.4v-23.1h3.4v17l0.2,0.1l2.4-4.2l7.5-12.8h3.4V323 H363v-17H362.7z M339.1,323.7c-2.9,0-5.1-1-6.7-3.1c-1.6-2.1-2.4-4.9-2.4-8.4c0-2,0.2-3.8,0.7-5.4c0.4-1.6,1.1-3,1.9-4.1 c0.8-1.1,1.8-2,3-2.6c1.2-0.6,2.5-0.9,4-0.9c1.4,0,2.7,0.1,4,0.4c1.2,0.3,2.3,0.7,3.3,1.2l-0.9,2.7c-0.8-0.3-1.7-0.5-2.8-0.7 s-2.2-0.4-3.3-0.4c-2,0-3.5,0.8-4.4,2.5c-0.9,1.6-1.4,3.8-1.4,6.6c0,1.1,0.1,2.2,0.2,3.3c0.1,1.1,0.4,2,0.8,2.9 c0.4,0.9,1,1.5,1.7,2.1c0.7,0.5,1.6,0.8,2.8,0.8c1.2,0,2.4-0.1,3.5-0.4c1.1-0.3,2.1-0.6,3-0.9l1,2.8c-1,0.5-2.1,0.9-3.3,1.3 C342.5,323.5,340.9,323.7,339.1,323.7z M320,323.7c-2.9,0-5.1-1-6.7-3.1c-1.6-2.1-2.4-4.9-2.4-8.4c0-2,0.2-3.8,0.7-5.4 c0.4-1.6,1.1-3,1.9-4.1c0.8-1.1,1.9-2,3-2.6c1.2-0.6,2.5-0.9,4-0.9c1.4,0,2.7,0.1,4,0.4c1.2,0.3,2.3,0.7,3.3,1.2l-0.9,2.7 c-0.8-0.3-1.7-0.5-2.7-0.7c-1.1-0.2-2.2-0.4-3.3-0.4c-2,0-3.5,0.8-4.4,2.5c-0.9,1.6-1.4,3.8-1.4,6.6c0,1.1,0.1,2.2,0.2,3.3 c0.1,1.1,0.4,2,0.8,2.9c0.4,0.9,1,1.5,1.7,2.1c0.7,0.5,1.6,0.8,2.8,0.8c1.2,0,2.4-0.1,3.5-0.4c1.1-0.3,2.1-0.6,3-0.9l1,2.8 c-1,0.5-2.1,0.9-3.3,1.3C323.4,323.5,321.9,323.7,320,323.7z M297.8,302.3c-1.1,0-2,0.2-2.7,0.7c-0.7,0.5-1.2,1.1-1.6,1.9 c-0.4,0.8-0.7,1.7-0.8,2.8c-0.2,1.1-0.2,2.2-0.2,3.4c0,1.4,0.1,2.7,0.2,3.8c0.2,1.2,0.4,2.2,0.8,3c0.4,0.8,1,1.5,1.6,2 c0.7,0.5,1.6,0.7,2.7,0.7c1.1,0,1.9-0.2,2.6-0.7c0.7-0.5,1.2-1.1,1.6-1.9c0.4-0.8,0.7-1.8,0.9-3c0.2-1.2,0.3-2.4,0.3-3.8 c0-1.2-0.1-2.3-0.2-3.4c-0.2-1.1-0.4-2-0.9-2.8c-0.4-0.8-1-1.5-1.7-2C299.8,302.5,298.9,302.3,297.8,302.3z M297.6,323.7 c-1.7,0-3.1-0.3-4.3-0.9c-1.2-0.6-2.1-1.5-2.9-2.6c-0.7-1.1-1.3-2.4-1.6-3.9c-0.3-1.5-0.5-3.1-0.5-4.8c0-1.6,0.2-3.2,0.5-4.7 c0.3-1.5,0.9-2.8,1.6-4c0.8-1.1,1.7-2,2.9-2.7c1.2-0.7,2.7-1,4.4-1c1.7,0,3.2,0.3,4.4,0.9c1.2,0.6,2.2,1.5,2.9,2.6 c0.8,1.1,1.3,2.4,1.6,3.9c0.3,1.5,0.5,3,0.5,4.7c0,1.7-0.2,3.3-0.5,4.7c-0.3,1.5-0.9,2.8-1.7,4c-0.8,1.1-1.8,2-3,2.7 C300.9,323.4,299.4,323.7,297.6,323.7z M272.5,293.5v12.2h3.5c0.9,0,1.7-0.1,2.5-0.2c0.8-0.1,1.5-0.4,2.1-0.8 c0.6-0.4,1.1-1.1,1.5-1.9c0.4-0.9,0.6-2,0.6-3.4c0-1.3-0.2-2.4-0.6-3.1c-0.4-0.8-0.9-1.3-1.5-1.7c-0.6-0.4-1.3-0.6-2-0.7 c-0.7-0.1-1.4-0.1-2.1-0.1H272.5z M272.5,309.1V323h-4.1v-33h8.3c0.9,0,2,0.1,3.1,0.2c1.2,0.1,2.2,0.5,3.3,1.1 c1,0.6,1.9,1.5,2.6,2.8c0.7,1.2,1,2.9,1,5.1c0,2-0.3,3.7-1,5c-0.6,1.3-1.5,2.3-2.5,3.1c-1,0.7-2.2,1.2-3.4,1.5 c-1.3,0.3-2.5,0.4-3.8,0.4H272.5z M755.3,266.3c-0.8,0-1.7,0.1-2.7,0.2c-1,0.1-2,0.4-2.9,0.7c-0.9,0.4-1.7,0.9-2.3,1.5 c-0.6,0.7-0.9,1.6-0.9,2.7c0,1.2,0.2,2.2,0.7,2.8c0.5,0.7,1.3,1,2.5,1c0.4,0,0.8-0.1,1.4-0.3c0.5-0.2,1.1-0.4,1.6-0.7 c0.5-0.3,1.1-0.6,1.5-0.9c0.5-0.3,0.9-0.6,1.2-0.9V266.3z M761.3,277.6c-0.5,0.2-1.1,0.4-1.6,0.5c-0.6,0.1-1.1,0.2-1.7,0.2 c-0.7,0-1.2-0.1-1.6-0.4c-0.4-0.2-0.7-0.8-0.9-1.6l-0.2-0.9l-2.5,1.6c-0.8,0.5-1.4,0.9-2,1.1c-0.5,0.2-1.1,0.3-1.5,0.3 c-1.5,0-2.7-0.2-3.6-0.7c-0.9-0.5-1.5-1.1-2-1.8c-0.5-0.7-0.7-1.4-0.9-2.2c-0.1-0.8-0.2-1.5-0.2-2.1c0-1.4,0.3-2.7,1-3.7 c0.6-1,1.5-1.8,2.7-2.5c1.1-0.6,2.5-1.1,4-1.4c1.5-0.3,3.2-0.5,5-0.5v-1.8c0-1.4-0.3-2.5-0.9-3.2c-0.6-0.8-1.7-1.1-3.4-1.1 c-1.2,0-2.3,0.1-3.3,0.4c-1,0.3-1.9,0.5-2.8,0.8l-0.9-2.6c1.1-0.6,2.3-1.1,3.5-1.4c1.3-0.3,2.6-0.5,3.9-0.5c2.8,0,4.7,0.6,5.8,1.9 c1.1,1.2,1.7,2.9,1.7,4.9v14.4h2.3V277.6z M734.5,277.9h-3.7v-20h-6.3v-3.1H741v3.1h-6.5V277.9z M718,267.4h-10v10.5h-3.7v-23.1 h3.7v9.6h10v-9.6h3.7v23.1H718V267.4z M691.9,257.1c-0.9,0-1.6,0.2-2.2,0.7c-0.6,0.4-1.2,1-1.6,1.7c-0.4,0.7-0.7,1.4-0.9,2.2 c-0.2,0.8-0.3,1.6-0.3,2.4H697c0-1-0.1-1.9-0.2-2.7c-0.1-0.8-0.4-1.6-0.8-2.2c-0.4-0.6-0.9-1.1-1.6-1.4 C693.7,257.3,692.9,257.1,691.9,257.1z M686.9,267.1c0,1,0.1,1.9,0.1,2.9c0.1,1,0.4,1.9,0.8,2.6c0.4,0.8,1,1.4,1.8,1.9 c0.8,0.5,1.9,0.8,3.4,0.8c1,0,2-0.1,3.1-0.3c1.1-0.2,2.2-0.5,3.5-1l1.1,2.7c-1,0.5-2.2,0.9-3.5,1.2c-1.3,0.3-2.7,0.5-4.3,0.5 c-2.1,0-3.7-0.3-5-0.9c-1.3-0.6-2.3-1.5-3.1-2.5c-0.8-1.1-1.3-2.4-1.6-3.8c-0.3-1.5-0.4-3.1-0.4-4.8c0-1,0.1-2.3,0.3-3.7 c0.2-1.4,0.6-2.8,1.2-4.1c0.6-1.3,1.5-2.4,2.7-3.3c1.2-0.9,2.8-1.4,4.8-1.4c2.2,0,3.8,0.4,5.1,1.1c1.2,0.7,2.1,1.7,2.7,2.9 c0.6,1.2,1,2.6,1.1,4.2c0.1,1.6,0.2,3.2,0.2,4.9H686.9z M661.3,284.8h-3.5l-0.1-10.1l2.1-0.1c0.4-0.4,0.8-0.9,1.1-1.4 c0.3-0.5,0.6-1.2,0.8-1.9c0.2-0.8,0.4-1.7,0.6-2.7c0.1-1.1,0.3-2.4,0.4-3.9l0.5-9.9H678v20l2.4,0.1l-0.1,10h-3.4l-0.1-6.9h-15.4 L661.3,284.8z M666.4,257.9l-0.4,6.6c-0.1,1.3-0.1,2.4-0.2,3.4c-0.1,1-0.2,1.9-0.4,2.7c-0.2,0.8-0.4,1.6-0.6,2.2 c-0.2,0.7-0.5,1.3-0.9,1.8h10.5v-16.8H666.4z M651.3,260.9l-2.2,3.9l-7.7,13.1H638v-23.1h3.4v17l0.2,0.1l2.4-4.2l7.5-12.8h3.4 v23.1h-3.4v-17H651.3z M624.8,278.4c-1.7,0-3.1-0.2-4.4-0.6c-1.2-0.4-2.3-0.9-3.3-1.6l1.4-2.4c0.8,0.4,1.8,0.8,2.8,1 c1,0.3,2.1,0.4,3.1,0.4c1.5,0,2.8-0.3,3.8-1c1-0.7,1.5-1.7,1.5-3.1c0-0.4-0.1-0.8-0.2-1.3c-0.1-0.5-0.4-0.9-0.7-1.3 c-0.3-0.4-0.8-0.7-1.4-1c-0.6-0.3-1.4-0.4-2.4-0.4h-3.2v-2.9h3.5c2.7,0,4-1.3,4-3.8c0-0.4-0.1-0.8-0.2-1.2 c-0.1-0.4-0.3-0.8-0.7-1.1c-0.3-0.3-0.8-0.6-1.4-0.8c-0.6-0.2-1.3-0.3-2.3-0.3c-0.3,0-0.7,0-1.2,0.1c-0.5,0.1-0.9,0.2-1.5,0.3 c-0.5,0.1-1,0.3-1.5,0.5c-0.5,0.2-1,0.4-1.4,0.6l-1.4-2.5c1.5-0.8,2.9-1.4,4.2-1.7c1.3-0.3,2.5-0.4,3.7-0.4c1.3,0,2.5,0.2,3.4,0.5 c0.9,0.3,1.7,0.8,2.3,1.4c0.6,0.6,1,1.3,1.3,2c0.3,0.8,0.4,1.6,0.4,2.5c0,1.4-0.3,2.4-0.9,3.3c-0.6,0.8-1.5,1.5-2.5,1.9 c1.4,0.4,2.4,1.2,3,2.1c0.6,1,0.8,2.1,0.8,3.4c0,1.2-0.2,2.3-0.7,3.2c-0.4,0.9-1.1,1.7-1.9,2.3c-0.8,0.6-1.7,1.1-2.8,1.4 C627.2,278.2,626,278.4,624.8,278.4z M606.5,257.1c-0.9,0-1.6,0.2-2.2,0.7c-0.6,0.4-1.2,1-1.6,1.7c-0.4,0.7-0.7,1.4-0.9,2.2 c-0.2,0.8-0.3,1.6-0.3,2.4h10.1c0-1-0.1-1.9-0.2-2.7c-0.1-0.8-0.4-1.6-0.8-2.2c-0.4-0.6-0.9-1.1-1.6-1.4 C608.3,257.3,607.5,257.1,606.5,257.1z M601.5,267.1c0,1,0,1.9,0.1,2.9c0.1,1,0.4,1.9,0.8,2.6c0.4,0.8,1,1.4,1.8,1.9 c0.8,0.5,1.9,0.8,3.4,0.8c1,0,2-0.1,3.1-0.3c1.1-0.2,2.3-0.5,3.5-1l1.1,2.7c-1,0.5-2.2,0.9-3.5,1.2c-1.3,0.3-2.7,0.5-4.3,0.5 c-2.1,0-3.7-0.3-5-0.9c-1.3-0.6-2.3-1.5-3.1-2.5c-0.8-1.1-1.3-2.4-1.5-3.8c-0.3-1.5-0.4-3.1-0.4-4.8c0-1,0.1-2.3,0.3-3.7 c0.2-1.4,0.6-2.8,1.2-4.1c0.6-1.3,1.5-2.4,2.7-3.3c1.2-0.9,2.8-1.4,4.8-1.4c2.2,0,3.8,0.4,5.1,1.1c1.2,0.7,2.1,1.7,2.7,2.9 c0.6,1.2,1,2.6,1.1,4.2c0.1,1.6,0.2,3.2,0.2,4.9H601.5z M580.1,273.4c0.7,0.5,1.6,1,2.6,1.4c1,0.5,2,0.7,3,0.7 c1.1,0,1.9-0.3,2.5-1c0.6-0.7,1-1.5,1.3-2.4c0.3-0.9,0.4-1.9,0.5-2.9c0-1,0.1-1.9,0.1-2.7c0-1.5-0.1-2.8-0.2-3.9 c-0.1-1.1-0.4-2-0.7-2.8c-0.3-0.7-0.8-1.3-1.4-1.7c-0.6-0.4-1.3-0.6-2.3-0.6c-0.5,0-1,0.1-1.5,0.2c-0.5,0.2-1,0.4-1.5,0.6 c-0.5,0.3-0.9,0.5-1.3,0.8c-0.4,0.3-0.8,0.6-1.1,0.9V273.4z M579.1,254.7l0.9,2.4l2.4-1.5c1.6-1,2.9-1.5,3.9-1.5 c1.6,0,2.9,0.4,3.9,1.1c1,0.7,1.8,1.6,2.4,2.8c0.6,1.2,1,2.5,1.2,4c0.2,1.5,0.3,3,0.3,4.6c0,1.3-0.1,2.7-0.3,4.1 c-0.2,1.4-0.6,2.7-1.2,3.9c-0.6,1.2-1.5,2.1-2.5,2.9c-1.1,0.8-2.5,1.2-4.2,1.2c-0.7,0-1.6-0.2-2.7-0.5c-1-0.3-2-0.9-3-1.8v11.1 h-3.8v-32.7H579.1z M567.2,248.4H555v29.5h-4.1v-33h20.3v33h-4.1V248.4z M525.3,257.1c-1.1,0-2,0.2-2.7,0.7 c-0.7,0.5-1.2,1.1-1.6,1.9c-0.4,0.8-0.7,1.7-0.8,2.8c-0.2,1.1-0.2,2.2-0.2,3.4c0,1.4,0.1,2.7,0.2,3.8c0.2,1.2,0.4,2.2,0.8,3 c0.4,0.9,0.9,1.5,1.6,2c0.7,0.5,1.6,0.7,2.7,0.7c1.1,0,1.9-0.2,2.6-0.7c0.7-0.5,1.2-1.1,1.6-1.9c0.4-0.8,0.7-1.8,0.9-3 c0.2-1.2,0.3-2.4,0.3-3.8c0-1.2-0.1-2.3-0.2-3.4c-0.2-1.1-0.5-2-0.9-2.8c-0.4-0.8-1-1.5-1.7-2 C527.2,257.4,526.4,257.1,525.3,257.1z M525.1,278.5c-1.7,0-3.1-0.3-4.3-0.9c-1.2-0.6-2.1-1.5-2.9-2.6c-0.7-1.1-1.3-2.4-1.6-3.9 c-0.3-1.5-0.5-3.1-0.5-4.8c0-1.6,0.2-3.2,0.5-4.7c0.3-1.5,0.9-2.8,1.6-3.9c0.8-1.1,1.7-2.1,2.9-2.7c1.2-0.7,2.7-1,4.4-1 c1.7,0,3.2,0.3,4.4,0.9c1.2,0.6,2.2,1.5,2.9,2.6c0.8,1.1,1.3,2.4,1.6,3.9c0.3,1.5,0.5,3.1,0.5,4.7c0,1.7-0.2,3.3-0.5,4.7 c-0.3,1.5-0.9,2.8-1.7,4c-0.8,1.1-1.8,2-3,2.7C528.4,278.2,526.9,278.5,525.1,278.5z M503.4,277.9h-3.7v-23.1h14.2v3.2h-10.5 V277.9z M486.1,257.1c-1.1,0-2,0.2-2.7,0.7c-0.7,0.5-1.2,1.1-1.6,1.9c-0.4,0.8-0.7,1.7-0.8,2.8c-0.2,1.1-0.2,2.2-0.2,3.4 c0,1.4,0.1,2.7,0.2,3.8c0.2,1.2,0.4,2.2,0.8,3c0.4,0.9,1,1.5,1.6,2c0.7,0.5,1.6,0.7,2.7,0.7c1.1,0,1.9-0.2,2.6-0.7 c0.7-0.5,1.2-1.1,1.6-1.9c0.4-0.8,0.7-1.8,0.9-3c0.2-1.2,0.3-2.4,0.3-3.8c0-1.2-0.1-2.3-0.2-3.4c-0.2-1.1-0.5-2-0.9-2.8 c-0.4-0.8-1-1.5-1.7-2C488,257.4,487.2,257.1,486.1,257.1z M485.9,278.5c-1.7,0-3.1-0.3-4.3-0.9c-1.2-0.6-2.1-1.5-2.9-2.6 c-0.7-1.1-1.3-2.4-1.6-3.9c-0.3-1.5-0.5-3.1-0.5-4.8c0-1.6,0.2-3.2,0.5-4.7c0.3-1.5,0.9-2.8,1.6-3.9c0.8-1.1,1.7-2.1,2.9-2.7 c1.2-0.7,2.7-1,4.4-1c1.7,0,3.2,0.3,4.4,0.9c1.2,0.6,2.2,1.5,2.9,2.6c0.8,1.1,1.3,2.4,1.6,3.9c0.3,1.5,0.5,3.1,0.5,4.7 c0,1.7-0.2,3.3-0.5,4.7c-0.3,1.5-0.9,2.8-1.7,4c-0.8,1.1-1.8,2-3,2.7C489.2,278.2,487.7,278.5,485.9,278.5z M468.6,260.8 c0-0.6-0.1-1.1-0.4-1.4c-0.2-0.4-0.5-0.7-0.9-0.9c-0.4-0.2-0.7-0.4-1.1-0.4c-0.4-0.1-0.7-0.1-1-0.1h-5.6v6.3h5.3 C467.4,264.2,468.6,263,468.6,260.8z M469.5,271.1c0-1.3-0.4-2.3-1.2-2.9c-0.8-0.6-1.9-0.9-3.3-0.9h-5.5v7.5h5.8 c0.5,0,1-0.1,1.4-0.2c0.5-0.1,0.9-0.3,1.3-0.6c0.4-0.3,0.7-0.7,1-1.1C469.4,272.3,469.5,271.7,469.5,271.1z M473.2,271.1 c0,1.9-0.6,3.5-1.9,4.8c-1.3,1.3-3.1,1.9-5.5,1.9h-9.7v-23.1h9.3c2,0,3.7,0.5,5,1.4c1.3,1,2,2.4,2,4.4c0,1-0.3,2-0.7,3 c-0.5,1-1.3,1.7-2.5,2.1c1.5,0.4,2.5,1,3.2,1.9C472.9,268.5,473.2,269.7,473.2,271.1z M437.7,273.4c0.7,0.5,1.6,1,2.6,1.4 c1,0.5,2,0.7,3,0.7c1.1,0,1.9-0.3,2.5-1c0.6-0.7,1-1.5,1.3-2.4c0.3-0.9,0.4-1.9,0.5-2.9c0.1-1,0.1-1.9,0.1-2.7 c0-1.5-0.1-2.8-0.2-3.9c-0.1-1.1-0.4-2-0.7-2.8c-0.3-0.7-0.8-1.3-1.4-1.7c-0.6-0.4-1.3-0.6-2.3-0.6c-0.5,0-1,0.1-1.5,0.2 c-0.5,0.2-1,0.4-1.5,0.6c-0.5,0.3-0.9,0.5-1.3,0.8c-0.4,0.3-0.8,0.6-1.1,0.9V273.4z M436.8,254.7l0.9,2.4l2.4-1.5 c1.6-1,2.9-1.5,3.9-1.5c1.6,0,2.9,0.4,3.9,1.1c1,0.7,1.8,1.6,2.4,2.8c0.6,1.2,1,2.5,1.2,4c0.2,1.5,0.3,3,0.3,4.6 c0,1.3-0.1,2.7-0.3,4.1c-0.2,1.4-0.6,2.7-1.2,3.9c-0.6,1.2-1.5,2.1-2.5,2.9c-1.1,0.8-2.5,1.2-4.2,1.2c-0.7,0-1.6-0.2-2.6-0.5 c-1-0.3-2-0.9-3-1.8v11.1H434v-32.7H436.8z M421,257.1c-0.9,0-1.6,0.2-2.2,0.7c-0.6,0.4-1.1,1-1.6,1.7c-0.4,0.7-0.7,1.4-0.9,2.2 c-0.2,0.8-0.3,1.6-0.3,2.4h10.1c0-1-0.1-1.9-0.2-2.7c-0.1-0.8-0.4-1.6-0.8-2.2c-0.4-0.6-0.9-1.1-1.6-1.4 C422.8,257.3,422,257.1,421,257.1z M416,267.1c0,1,0.1,1.9,0.1,2.9c0.1,1,0.4,1.9,0.8,2.6c0.4,0.8,1,1.4,1.8,1.9 c0.8,0.5,1.9,0.8,3.4,0.8c1,0,2-0.1,3.1-0.3c1.1-0.2,2.2-0.5,3.5-1l1.1,2.7c-1,0.5-2.2,0.9-3.5,1.2c-1.3,0.3-2.7,0.5-4.3,0.5 c-2.1,0-3.7-0.3-5-0.9c-1.3-0.6-2.3-1.5-3.1-2.5c-0.8-1.1-1.3-2.4-1.5-3.8c-0.3-1.5-0.4-3.1-0.4-4.8c0-1,0.1-2.3,0.3-3.7 c0.2-1.4,0.6-2.8,1.2-4.1c0.6-1.3,1.5-2.4,2.7-3.3c1.2-0.9,2.8-1.4,4.8-1.4c2.2,0,3.8,0.4,5.1,1.1c1.2,0.7,2.1,1.7,2.7,2.9 c0.6,1.2,1,2.6,1.1,4.2c0.1,1.6,0.2,3.2,0.2,4.9H416z M404,257.9h-9.3v20h-3.8v-23.1h16.8v23.1H404V257.9z M371.5,260.9l-2.2,3.9 l-7.7,13.1h-3.4v-23.1h3.4v17l0.2,0.1l2.4-4.2l7.5-12.8h3.4v23.1h-3.4v-17H371.5z M350.2,267.4h-10v10.5h-3.7v-23.1h3.7v9.6h10 v-9.6h3.7v23.1h-3.7V267.4z M324,257.1c-0.9,0-1.6,0.2-2.2,0.7c-0.6,0.4-1.1,1-1.6,1.7c-0.4,0.7-0.7,1.4-0.9,2.2 c-0.2,0.8-0.3,1.6-0.3,2.4h10.1c0-1-0.1-1.9-0.2-2.7c-0.1-0.8-0.4-1.6-0.8-2.2c-0.4-0.6-0.9-1.1-1.6-1.4 C325.9,257.3,325,257.1,324,257.1z M319,267.1c0,1,0.1,1.9,0.1,2.9c0.1,1,0.4,1.9,0.8,2.6c0.4,0.8,1,1.4,1.8,1.9 c0.8,0.5,1.9,0.8,3.4,0.8c1,0,2-0.1,3.1-0.3c1.1-0.2,2.2-0.5,3.5-1l1.1,2.7c-1,0.5-2.2,0.9-3.5,1.2c-1.3,0.3-2.7,0.5-4.3,0.5 c-2.1,0-3.7-0.3-5-0.9c-1.3-0.6-2.3-1.5-3.1-2.5c-0.8-1.1-1.3-2.4-1.5-3.8c-0.3-1.5-0.4-3.1-0.4-4.8c0-1,0.1-2.3,0.3-3.7 c0.2-1.4,0.6-2.8,1.2-4.1c0.6-1.3,1.5-2.4,2.7-3.3c1.2-0.9,2.8-1.4,4.8-1.4c2.1,0,3.8,0.4,5.1,1.1c1.2,0.7,2.1,1.7,2.7,2.9 c0.6,1.2,1,2.6,1.1,4.2c0.1,1.6,0.2,3.2,0.2,4.9H319z M293.4,277.9H290v-23.1h4.7l5,11.4l0.9,1.8l0.8-1.8l5-11.4h4.7v23.1h-3.4 v-17.7l-0.4,0.8l-5.4,11.6h-2.4l-5.5-11.6l-0.4-0.8V277.9z M281.8,260.9l-2.2,3.9l-7.7,13.1h-3.4v-23.1h3.4v17l0.2,0.1l2.4-4.2 l7.5-12.8h3.4v23.1H282v-17H281.8z"/> <path d="M624.7,311.5c-0.8,0-1.7,0.1-2.8,0.2c-1,0.1-2,0.4-2.9,0.7c-0.9,0.4-1.7,0.9-2.3,1.5c-0.6,0.7-0.9,1.6-0.9,2.7 c0,1.2,0.2,2.2,0.7,2.8c0.5,0.7,1.3,1,2.5,1c0.4,0,0.8-0.1,1.4-0.3c0.5-0.2,1.1-0.4,1.6-0.7c0.5-0.3,1.1-0.6,1.5-0.9 c0.5-0.3,0.9-0.6,1.2-0.9V311.5z M630.8,322.8c-0.5,0.2-1.1,0.4-1.6,0.5c-0.6,0.1-1.1,0.2-1.7,0.2c-0.7,0-1.2-0.1-1.6-0.4 c-0.4-0.2-0.7-0.8-0.9-1.6l-0.2-0.9l-2.5,1.6c-0.8,0.5-1.4,0.9-2,1.1c-0.5,0.2-1.1,0.3-1.5,0.3c-1.5,0-2.7-0.2-3.6-0.7 c-0.9-0.5-1.5-1.1-2-1.8c-0.5-0.7-0.7-1.4-0.9-2.2c-0.1-0.8-0.2-1.5-0.2-2.1c0-1.4,0.3-2.7,1-3.7c0.6-1,1.5-1.8,2.6-2.5 c1.1-0.6,2.5-1.1,4-1.4c1.5-0.3,3.2-0.5,5-0.5v-1.8c0-1.4-0.3-2.4-0.9-3.2c-0.6-0.8-1.7-1.1-3.4-1.1c-1.2,0-2.3,0.1-3.3,0.4 c-1,0.3-1.9,0.5-2.8,0.8l-0.9-2.6c1.1-0.6,2.3-1.1,3.5-1.4c1.3-0.4,2.6-0.5,3.9-0.5c2.8,0,4.7,0.6,5.8,1.9 c1.1,1.2,1.7,2.9,1.7,4.9v14.4h2.3V322.8z"/> </g> <g> <path class="st0" d="M151.4,1H3.5L0,14.3C26.9,14.3,38.3,33,50.4,53l99.1,169.1c4.7,8.4,9.3,18.6,9.1,28.2 c-0.4,24.9-32.8,34-52.2,34.9c-14.2,0.7-28.2-2.6-40.9-8.3l-7.9,10.1c4.6,19.5,22.7,43.2,47.7,43c43.3-0.3,66-39.7,83.4-71.8 l32.2-59.5L127.4,39c-8.6-14.3,5.5-24.7,20.6-24.8L151.4,1z"/> <path class="st0" d="M151.5,1H3.5L0,14.3C26.9,14.3,38.3,33,50.4,53l99.1,169.2c3.7,7,8.4,12.9,9.6,20.9c0.3,1.7-0.5,5.6-0.5,7.3 c-0.4,24.9-32.8,34-52.2,35c-14.2,0.7-28.3-2.6-40.9-8.3l-7.9,10.1c4.6,19.5,22.7,43.2,47.7,43.1c43.3-0.3,66.1-39.8,83.5-71.9 l32.3-59.5L127.4,39c-8.7-14.3,5.5-24.7,20.6-24.8L151.5,1z"/> <path class="st1" d="M94.6,284.9c-10.1-1-20-3.9-29.1-8l-7.9,10.1c3.9,16.6,17.6,36.3,36.9,41.7c4.5,1.4,9.5,1.5,10.8,1.5 c8.3-0.1,15.8-1.6,22.7-4.2v-44.7c-7.6,2.3-15.6,3.5-21.9,3.8c-0.9,0-4.2,0.1-7,0c-2-0.1-3.8-0.2-4.4-0.3l0,0L94.6,284.9z"/> <path class="st1" d="M153.9,265.1c-2.3,3.3-5.4,6.2-8.9,8.6v43c3.1-2.3,6.1-4.9,8.9-7.6V265.1z"/> <path class="st1" d="M128.5,186.4l2.9,5v-22.2c0-18.7,8.8-12.6,9.5-4.1l4.2,49.6c12.1,20.7-50.8-86.6,4.4,7.7 c1.5,2.9,3.2,5.6,4.7,8.3v-70.7c0-7-5.8-12.8-12.9-12.8c-7.1,0-12.9,5.8-12.9,12.8V186.4z"/> <path class="st1" d="M184.3,171.9c2,28.5,3,57.7,3.2,88.4l6.2-11v-89.6c0-7-5.8-12.8-12.9-12.8c-7,0-12.9,5.8-12.9,12.8 C176.2,153.1,183.3,157.7,184.3,171.9"/> <path class="st1" d="M94.8,1h-6.2l44.3,17.2c2.5-1.5,5.5-2.6,8.7-3.3L94.8,1z"/> <path class="st2" d="M64.2,76.6l-4.3-7.4c14.4-1.7,21.2-6.7,26.5-13.5C85.1,64.1,77.3,74.8,64.2,76.6 M64.6,6 C91.8,5.7,107,30.5,93.9,56.1c3.8-24.1-5.4-44.7-31.1-44c-12.1,0.3-21.9,6.9-26.2,20.1c-1.3-1.4-2.6-2.8-3.9-4.1 C37.4,14.8,47.2,6.2,64.6,6z"/> <path class="st2" d="M56.1,62.7l-4.7-8c8.5,2.4,16.8,0.4,21.8-4.3C71.4,56.6,65.8,62.7,56.1,62.7 M50.7,23.6 c13.4-12.9,47,0,28.6,27.7C82.2,39.5,77,17.5,50.7,23.6z"/> <path class="st2" d="M69.6,39.6c-1.3,10.2-12.7,13.7-19.8,7.2c-7.1-6.6-4.4-16.2,7-20.9C41.5,42.8,65.7,49.2,69.6,39.6"/> <path class="st2" d="M24.8,21.4c-2.6-1.7-5.4-3.2-8.5-4.4C19,11.9,31.8,1.4,35,5.4C36.3,7.1,28.8,10.1,24.8,21.4"/> <path class="st2" d="M145.7,80.9c0.5-0.6,4.1,0.3,3.1,2.9c-0.5,1.1-2,1.9-1,2.9c4.6,4.7-4.6,1.4,1.5,9.1c0.5,0.7-11.3,2.3-1.5,9.3 c1.5,1.1,3.5,1.5,5,2.9c2.8,2.7-1.9,2.7-6,2.2c-19.3-0.3-20-12.9-15.4-22.5c0.8-1.7,0.7-1.4,2.2-3.6c3.5-5,6.7-3.2,6.6-1.1 c-0.2,5.2,0.7,7.1,3.9,0.9C144.6,82.9,144.6,82.3,145.7,80.9 M125.7,53c-0.5-2.1-1.9-1.5-2.5,0c-1.3,3.6-4.9,15.3,0.1,15.3 C128.1,68.2,126.5,56.8,125.7,53z M134.9,63c-1.3-1.8-2.6-5.7-2.8-7.9c-1.5-13.2-10.9,12.9,4.4,13.1 C141.9,68.2,136.1,64.8,134.9,63z M118.1,66.6c1-2.7,3.5-14.4,1.1-15.1c-1-0.3-4.1,5.3-6.2,11.6C110.9,69.4,117.2,69.2,118.1,66.6 z M125.6,99.9c-2.9,1.4-2.8,8-0.2,5.8c1.9-2.7,3.5,4.4,5.3,6.9c10.2,1.2,29.4,2.1,41.2,2.2l-2.5-4.3l-1,0 c-0.4-0.2-0.8-0.4-0.9-0.5c-2.7-3.6-2-0.9-2.3,0.6c-3.7,3.9-3.5-13.2-3.6-13.5l-2.3-4c0.2,3.7,1.1,12.1,0.8,15.2 c-0.3,3.1-1.2,0.2-1.3-1.2c-0.2-4.3-0.3-8.7-1.1-12.8c-0.3-1.2-0.1-3.1-0.3-4.4l-0.9-1.6c-0.2,0.5-0.1,4.9,0.3,6.7 c0.4,2.1,1.2,5.3-1.6,2.8c-0.3-0.3-1.4-0.5-1.3,0.2c0,0.2,2.6,3.3,3,4.2c3.7,9.2-4.5,3.2-7.1-0.2c-2.8-3.7,2.1-3.9,2.7-5.1 c0.6-1.4-3.6-4.2-2.7-5.7c0.5-0.8,0.6-4.5,2.4-2.4c5,5.7-1.2-4.6-1.4-5.3c-0.9-3.2,1-3.2,0.2-4.7l-2.7-4.6 c-0.2,0.1-0.4,0.1-0.6,0.1h-37.2c-1,0-1.8-0.8-1.8-1.7v0c0-1,0.8-1.7,1.8-1.7h35.9l-3.3-5.7c-0.6,0.2-1.6,0.2-3.3-0.4 c-5.7-2-4-10.5-3.4-11l-2.6-4.8l-13.5,0c-5.9,0-7.6-10.1,0.9-10l6.6,0c-0.4-0.6-0.7-1.1-1-1.7c-4.3,0.5-6.1-6.2-1.5-7.9 c0.2-2,0.8-3.9,1.9-5.6c0.9-1.5,1.9-2.5,3.3-3.8L85.9,1h-1.7c14.2,7.4,19.7,11.8,33.8,19.3c3.9,1.6-0.7,7.7-3.7,5.6 c-0.6-0.4-9.2-7.3-13.6-10.9c-3.1-2.6-1.7-0.8-1,0C118.4,39.9,99,79.2,68,83.1l4.8,8.2c1.1-2.4,5.4-6.6,5.3-1.7 c-0.1,9.7,4.8-7.5,8.7-3.5c5.7,6,2-12.7,8.6-5.7c0.9,0.9,3.3-3.6,3.9-4.1c6-4.5,6.1,0.9-0.9,7c-0.5,2.1-2.5,6.7-4.7,7.2 c-0.8,0.2-0.9-1.8-2.2-1.9c-0.7-0.1-1.6,2.2-2.3,4c-3,7.7-2.5-0.6-3.5-2.1c-2.1-2.9-3.4,5.4-3.5,5.8c-0.3,3.3-0.9,6.5-1.4,8.5 l0,0.2c14.6,25,27.1,46.3,41.9,71.2l-0.7-18.1c-0.3-8.4-3.7-8.9-6.2-10.2c4.7-7.7,51.8-12.4,70.8-7.7l-3.3-5.6 c-19.4-0.6-44-0.5-63.6-2.1c-3-0.6-2.4-2.8,0.3-2.8c19.6,1,42.4,1.5,61.4,1.6l-2.3-4c-21.1,1-37.9-0.2-59.6-2.2 c-12.5-1.2-6.5-13.8,8.8-12.2c-2.2-3.1-6.9-5-8-4.4c-1,0.6-1.4,1.3-2.9,1.6c-2.7,0.5-7.6-2.2-3.2-3c3.8-0.7,5.1-4.6,0.5-4.2 c-5.4,0.4-4-9.1-1.5-6.2c1.3,1.5,2.1,2.4,3,2.4c2.7,0,3.8-5,2-7.1c-1.2-1.5-5.5-2-6.6-4.2c-1.8-3.5,0.9-8,5-3.7 c0.9,1,2.7-1.2,2.8-3.6c0.1-3,6.8-0.2,5.7,2c-1,2-6.1,7.6-1.7,7.8c3.2,0.2,2.3,4.4,0.1,6.2C119.5,99.6,128.8,97.2,125.6,99.9z M120.1,37c-4.8,3.3-10.2-4.7-5.2-6.8C118.3,28.8,122,35.7,120.1,37z"/> <path class="st2" d="M134.8,1c1.2,4.7,6,10,13.4,11.8l0.7-2.7C142.8,7,141.4,3.7,142,1H134.8z"/> </g> <g> <path class="st1" d="M426,430.6h-6.5v-17h-5.6v-5.3h17.8v5.3H426V430.6z M401.9,423.8l1.8-6.3l2.9-9.2h6.7l-10.7,31.4h-6.3 l3.2-10.2l-2.2-2.3l-6.5-18.9h7l2.5,9.5l1.5,5.9H401.9z M383.9,430.6h-6.5v-17h-5.6v-5.3h17.8v5.3h-5.7V430.6z M363.2,417.7 l-3.4,6.6l-3.3,6.3h-6.3v-22.2h6.3v12.9l0.2,0.1l1.5-3l5.1-10v0.1h6.2v22.2h-6.2v-12.9H363.2z M342.3,430.6h-6.5v-17h-5.6v-5.3 H348v5.3h-5.7V430.6z M322.7,426.1c0.9,0,1.8-0.1,2.6-0.3c0.9-0.2,1.9-0.4,2.9-0.8l1.2,4.3c-1.2,0.6-2.3,1.1-3.5,1.3 c-1.1,0.3-2.5,0.4-4.1,0.4c-1.8,0-3.3-0.3-4.6-0.9c-1.3-0.6-2.4-1.4-3.2-2.4c-0.8-1-1.5-2.2-1.9-3.6c-0.4-1.4-0.6-2.9-0.6-4.6 c0-1.8,0.2-3.4,0.6-4.8c0.4-1.5,1-2.7,1.9-3.8c0.9-1.1,1.9-1.9,3.2-2.5c1.3-0.6,2.8-0.9,4.6-0.9c1.6,0,2.9,0.2,4.1,0.5 c1.2,0.3,2.2,0.7,3.1,1.1l-1.2,4.4c-0.7-0.2-1.5-0.5-2.5-0.6c-1-0.2-1.9-0.3-2.7-0.3c-1.4,0-2.5,0.5-3.2,1.5c-0.7,1-1,2.7-1,5.2 c0,1,0.1,1.9,0.2,2.7c0.1,0.8,0.3,1.5,0.6,2.1c0.3,0.6,0.7,1,1.2,1.3C321.3,426,321.9,426.1,322.7,426.1z M301.8,421.5h-5.7v9.1 h-6.5v-22.2h6.5v8.2h5.7v-8.2h6.5v22.2h-6.5V421.5z M279.6,417.7l-3.4,6.6l-3.3,6.3h-6.3v-22.2h6.3v12.9l0.2,0.1l1.5-3l5.1-10v0.1 h6.2v22.2h-6.2v-12.9H279.6z M746.8,361.6c0.5,0,0.9-0.1,1.3-0.3c0.4-0.2,0.7-0.5,1-0.9c0.3-0.4,0.5-0.8,0.7-1.2 c0.2-0.4,0.3-0.9,0.4-1.4h3.7c0,0.9-0.2,1.8-0.5,2.7c-0.3,0.9-0.8,1.8-1.4,2.5c-0.6,0.8-1.4,1.4-2.3,1.9c-0.9,0.5-1.9,0.7-3.1,0.7 c-1.2,0-2.3-0.2-3.2-0.7c-0.9-0.5-1.7-1.1-2.3-1.9c-0.6-0.8-1.1-1.6-1.4-2.5c-0.3-0.9-0.5-1.8-0.5-2.7h3.9 c0.1,0.9,0.5,1.8,1.1,2.6C745,361.2,745.8,361.6,746.8,361.6z M749.8,376.8l-3.4,6.6l-3.3,6.3h-6.3v-22.2h6.3v12.9l0.2,0.1l1.5-3 l5.1-10v0.1h6.2v22.2H750v-12.9H749.8z M705.9,367.4h6.5v8.2h4.5c0.9,0,1.8,0.1,2.7,0.3c0.9,0.2,1.8,0.6,2.6,1.1 c0.8,0.5,1.4,1.2,1.9,2.1c0.5,0.9,0.7,2,0.7,3.4c0,1.3-0.2,2.4-0.7,3.3c-0.5,0.9-1.1,1.7-1.9,2.2c-0.8,0.6-1.6,1-2.6,1.3 c-0.9,0.3-1.8,0.4-2.7,0.4h-11V367.4z M715.7,384.9c0.5,0,1.1-0.2,1.6-0.6c0.5-0.4,0.8-1,0.8-1.8c0-0.8-0.3-1.3-0.8-1.6 c-0.5-0.3-1.2-0.5-2-0.5h-2.9v4.5H715.7z M733.2,367.3v22.3h-6.6v-22.3H733.2z M695.7,380.6H690v9.1h-6.5v-22.2h6.5v8.2h5.7v-8.2 h6.5v22.2h-6.5V380.6z M667.7,384.3c0.5,0.3,1,0.6,1.5,0.8c0.5,0.2,1,0.3,1.5,0.3c0.6,0,1-0.2,1.4-0.6c0.4-0.4,0.7-0.9,0.9-1.5 c0.2-0.6,0.3-1.3,0.4-2.1c0.1-0.8,0.1-1.6,0.1-2.5c0-2.2-0.2-3.9-0.6-5.1c-0.4-1.2-1.2-1.8-2.2-1.8c-0.4,0-0.9,0.1-1.4,0.4 c-0.5,0.3-1,0.6-1.4,0.9V384.3z M667.6,388.1v10.8h-6.7v-31.4h5.7l1,2.4l2.1-1.5c0.6-0.4,1.2-0.7,1.7-1c0.6-0.3,1.2-0.4,1.8-0.4 c1.4,0,2.6,0.4,3.6,1.1c0.9,0.7,1.7,1.7,2.2,2.8c0.5,1.1,0.9,2.4,1.1,3.8c0.2,1.4,0.3,2.8,0.3,4.1c0,1.3-0.1,2.6-0.4,4 c-0.3,1.4-0.7,2.6-1.3,3.7c-0.6,1.1-1.4,2-2.4,2.7c-1,0.7-2.2,1.1-3.6,1.1c-0.6,0-1.3-0.1-2.2-0.4 C669.7,389.6,668.7,389,667.6,388.1L667.6,388.1z M649.4,379.6c-0.5,0-1,0.1-1.6,0.2c-0.6,0.1-1.2,0.3-1.7,0.5 c-0.5,0.2-1,0.6-1.3,1c-0.4,0.4-0.5,1-0.5,1.7c0,0.8,0.1,1.4,0.4,1.8c0.3,0.5,0.8,0.7,1.5,0.7c0.5,0,1-0.1,1.6-0.4 c0.6-0.3,1.2-0.6,1.6-0.9V379.6z M658.1,389.4c-1,0.2-1.9,0.5-2.8,0.6c-0.9,0.2-1.7,0.3-2.4,0.3c-0.9,0-1.6-0.1-2-0.4 c-0.4-0.3-0.7-0.8-0.9-1.5l-0.2-0.9l-2.4,1.5c-0.6,0.4-1.2,0.7-1.8,1c-0.6,0.3-1.1,0.4-1.5,0.4c-1.5,0-2.6-0.2-3.5-0.7 c-0.8-0.5-1.5-1-1.9-1.7c-0.4-0.7-0.7-1.4-0.9-2.2c-0.1-0.8-0.2-1.5-0.2-2.1c0-1.5,0.3-2.7,1-3.7c0.7-1,1.6-1.7,2.7-2.3 c1.1-0.6,2.4-1,3.8-1.2c1.4-0.2,2.8-0.4,4.2-0.5v-0.9c0-1-0.3-1.7-0.8-2.2c-0.5-0.5-1.3-0.7-2.5-0.7c-0.9,0-1.8,0.1-2.8,0.2 c-1,0.2-1.9,0.4-2.8,0.6l-1.1-4.2c1.4-0.6,2.9-1.1,4.3-1.3c1.4-0.3,2.6-0.4,3.6-0.4c2.8,0,5,0.6,6.6,1.8c1.6,1.2,2.3,3.2,2.3,6 v10.5h2V389.4z M630.7,389.6h-6.5v-17h-5.6v-5.3h17.8v5.3h-5.7V389.6z M610,376.8l-3.4,6.6l-3.3,6.3H597v-22.2h6.3v12.9l0.2,0.1 l1.5-3l5.1-10v0.1h6.2v22.2h-6.2v-12.9H610z M586.9,380.6h-5.7v9.1h-6.5v-22.2h6.5v8.2h5.7v-8.2h6.5v22.2h-6.5V380.6z M563.3,379.6c-0.5,0-1,0.1-1.6,0.2c-0.6,0.1-1.2,0.3-1.7,0.5c-0.5,0.2-1,0.6-1.3,1c-0.4,0.4-0.5,1-0.5,1.7c0,0.8,0.1,1.4,0.4,1.8 c0.3,0.5,0.8,0.7,1.5,0.7c0.5,0,1-0.1,1.6-0.4c0.6-0.3,1.2-0.6,1.6-0.9V379.6z M572,389.4c-1,0.2-1.9,0.5-2.8,0.6 c-0.9,0.2-1.7,0.3-2.4,0.3c-0.9,0-1.6-0.1-2-0.4c-0.4-0.3-0.7-0.8-0.9-1.5l-0.2-0.9l-2.4,1.5c-0.6,0.4-1.2,0.7-1.8,1 c-0.6,0.3-1.1,0.4-1.5,0.4c-1.5,0-2.6-0.2-3.5-0.7c-0.8-0.5-1.5-1-1.9-1.7c-0.4-0.7-0.7-1.4-0.9-2.2c-0.1-0.8-0.2-1.5-0.2-2.1 c0-1.5,0.3-2.7,1-3.7c0.7-1,1.6-1.7,2.7-2.3c1.1-0.6,2.4-1,3.8-1.2c1.4-0.2,2.8-0.4,4.2-0.5v-0.9c0-1-0.3-1.7-0.8-2.2 c-0.5-0.5-1.3-0.7-2.5-0.7c-0.9,0-1.8,0.1-2.8,0.2c-1,0.2-1.9,0.4-2.8,0.6l-1.1-4.2c1.4-0.6,2.9-1.1,4.3-1.3 c1.4-0.3,2.6-0.4,3.6-0.4c2.8,0,5,0.6,6.6,1.8c1.6,1.2,2.3,3.2,2.3,6v10.5h2V389.4z M538,384.8h-4.1c-0.6-1.3-1.2-2.6-1.9-3.9 c-0.6-1.3-1.3-2.6-2-3.9H530v12.7h-6.3v-22.2h7l5.3,10.5c0.9-1.8,1.8-3.5,2.6-5.2c0.8-1.7,1.7-3.5,2.6-5.2h6.9v22.2h-6.2V377 L538,384.8z M510,382.9l1.8-6.3l2.9-9.2h6.7l-10.7,31.4h-6.3l3.2-10.2l-2.2-2.3l-6.5-18.9h7l2.5,9.5l1.5,5.9H510z M481.8,367.4h16 v5.2h-9.4v17h-6.6V367.4z M455.4,361.6c0.5,0,0.9-0.1,1.3-0.3c0.4-0.2,0.7-0.5,1-0.9c0.3-0.4,0.5-0.8,0.7-1.2 c0.2-0.4,0.3-0.9,0.4-1.4h3.7c0,0.9-0.2,1.8-0.5,2.7c-0.3,0.9-0.8,1.8-1.4,2.5c-0.6,0.8-1.4,1.4-2.3,1.9c-0.9,0.5-1.9,0.7-3.1,0.7 c-1.2,0-2.2-0.2-3.2-0.7c-0.9-0.5-1.7-1.1-2.3-1.9c-0.6-0.8-1.1-1.6-1.4-2.5c-0.3-0.9-0.5-1.8-0.5-2.7h3.9 c0.1,0.9,0.5,1.8,1.1,2.6C453.7,361.2,454.5,361.6,455.4,361.6z M458.5,376.8l-3.4,6.6l-3.3,6.3h-6.3v-22.2h6.3v12.9l0.2,0.1 l1.5-3l5.1-10v0.1h6.2v22.2h-6.2v-12.9H458.5z M435.5,376.8l-3.4,6.6l-3.3,6.3h-6.3v-22.2h6.3v12.9l0.2,0.1l1.5-3l5.1-10v0.1h6.2 v22.2h-6.2v-12.9H435.5z M420.5,367.5l-7.8,10.2l7.7,11.9h-7.7l-6.2-10.9h-0.1v10.9h-6.7v-22.2h6.7v9.4h0.1l6.5-9.4H420.5z M390.7,385.2c0.9,0,1.8-0.1,2.6-0.3c0.9-0.2,1.9-0.4,2.9-0.8l1.2,4.3c-1.2,0.6-2.3,1.1-3.5,1.3c-1.1,0.3-2.5,0.4-4.1,0.4 c-1.8,0-3.3-0.3-4.6-0.9c-1.3-0.6-2.4-1.4-3.2-2.4c-0.8-1-1.5-2.2-1.9-3.6c-0.4-1.4-0.6-2.9-0.6-4.6c0-1.8,0.2-3.4,0.6-4.8 c0.4-1.5,1-2.7,1.9-3.8c0.9-1.1,1.9-1.9,3.2-2.5c1.3-0.6,2.8-0.9,4.6-0.9c1.6,0,2.9,0.2,4.1,0.5c1.2,0.3,2.2,0.7,3.1,1.1l-1.2,4.4 c-0.7-0.2-1.5-0.5-2.5-0.6c-1-0.2-1.9-0.3-2.7-0.3c-1.4,0-2.5,0.5-3.2,1.5c-0.7,1-1,2.7-1,5.2c0,1,0.1,1.9,0.2,2.7 c0.1,0.8,0.3,1.5,0.6,2.1c0.3,0.6,0.7,1,1.2,1.3C389.2,385.1,389.9,385.2,390.7,385.2z M358.1,367.4h6.5v8.2h4.5 c0.9,0,1.8,0.1,2.7,0.3c0.9,0.2,1.8,0.6,2.6,1.1c0.8,0.5,1.4,1.2,1.9,2.1c0.5,0.9,0.7,2,0.7,3.4c0,1.3-0.2,2.4-0.7,3.3 c-0.5,0.9-1.1,1.6-1.9,2.2c-0.8,0.6-1.6,1-2.6,1.2c-0.9,0.3-1.9,0.4-2.7,0.4h-11V367.4z M367.9,384.9c0.5,0,1.1-0.2,1.6-0.6 c0.5-0.4,0.8-1,0.8-1.8c0-0.8-0.3-1.4-0.8-1.7c-0.5-0.3-1.2-0.5-2-0.5h-2.9v4.6H367.9z M343.5,372.7v3.9c0,2.1-0.1,3.9-0.4,5.4 c-0.3,1.5-0.7,2.8-1.3,3.9c-0.6,1.1-1.4,2.1-2.3,2.9c-1,0.8-2.1,1.6-3.5,2.3l-2.8-4.4c0.9-0.7,1.7-1.3,2.2-1.9 c0.6-0.6,1-1.3,1.3-2c0.3-0.7,0.5-1.6,0.6-2.5c0.1-1,0.1-2.1,0.1-3.5v-9.4h16.9v22.2h-6.6v-17H343.5z M323.8,379.6 c-0.5,0-1,0.1-1.6,0.2c-0.6,0.1-1.2,0.3-1.7,0.5c-0.5,0.2-1,0.6-1.3,1c-0.4,0.4-0.5,1-0.5,1.7c0,0.8,0.1,1.4,0.4,1.8 c0.3,0.5,0.8,0.7,1.5,0.7c0.5,0,1-0.1,1.6-0.4c0.6-0.3,1.2-0.6,1.6-0.9V379.6z M332.5,389.4c-1,0.2-1.9,0.5-2.8,0.6 c-0.9,0.2-1.7,0.3-2.4,0.3c-0.9,0-1.6-0.1-2-0.4c-0.4-0.3-0.7-0.8-0.9-1.5l-0.2-0.9l-2.4,1.5c-0.6,0.4-1.2,0.7-1.7,1 c-0.6,0.3-1.1,0.4-1.5,0.4c-1.5,0-2.6-0.2-3.5-0.7c-0.8-0.5-1.5-1-1.9-1.7c-0.4-0.7-0.7-1.4-0.9-2.2c-0.1-0.8-0.2-1.5-0.2-2.1 c0-1.5,0.3-2.7,1-3.7c0.7-1,1.6-1.7,2.7-2.3c1.1-0.6,2.4-1,3.8-1.2c1.4-0.2,2.8-0.4,4.2-0.5v-0.9c0-1-0.3-1.7-0.8-2.2 c-0.5-0.5-1.3-0.7-2.5-0.7c-0.9,0-1.8,0.1-2.8,0.2c-1,0.2-1.9,0.4-2.8,0.6l-1.1-4.2c1.4-0.6,2.9-1.1,4.3-1.3 c1.4-0.3,2.6-0.4,3.6-0.4c2.8,0,5,0.6,6.6,1.8c1.6,1.2,2.3,3.2,2.3,6v10.5h2V389.4z M296.9,384.3c0.5,0.3,1,0.6,1.5,0.8 c0.5,0.2,1,0.3,1.5,0.3c0.6,0,1-0.2,1.4-0.6c0.4-0.4,0.7-0.9,0.9-1.5c0.2-0.6,0.3-1.3,0.4-2.1c0.1-0.8,0.1-1.6,0.1-2.5 c0-2.2-0.2-3.9-0.6-5.1c-0.4-1.2-1.2-1.8-2.2-1.8c-0.4,0-0.9,0.1-1.4,0.4c-0.5,0.3-1,0.6-1.4,0.9V384.3z M296.8,388.1v10.8h-6.7 v-31.4h5.7l1,2.4l2.1-1.5c0.6-0.4,1.2-0.7,1.7-1c0.6-0.3,1.2-0.4,1.8-0.4c1.4,0,2.6,0.4,3.6,1.1c0.9,0.7,1.7,1.7,2.2,2.8 c0.5,1.1,0.9,2.4,1.1,3.8c0.2,1.4,0.3,2.8,0.3,4.1c0,1.3-0.1,2.6-0.4,4c-0.3,1.4-0.7,2.6-1.3,3.7c-0.6,1.1-1.4,2-2.4,2.7 c-1,0.7-2.2,1.1-3.6,1.1c-0.6,0-1.3-0.1-2.2-0.4C298.8,389.6,297.9,389,296.8,388.1L296.8,388.1z M283.4,358.1h6.9 c-1.4,3.7-2.7,7.3-4,11c-1.3,3.6-2.6,7.3-4,11c-0.8,2.2-1.6,4-2.3,5.3c-0.7,1.3-1.6,2.4-2.4,3.1c-0.9,0.7-1.9,1.2-3.2,1.5 c-1.2,0.3-2.7,0.4-4.4,0.5l-0.5-5.3c1.5-0.2,2.8-0.5,3.7-0.9c0.9-0.4,1.5-1.1,1.9-2.2l0.3-0.8l-2-1.5l-7.8-21.6h7.1 c0.5,1.7,1,3.3,1.5,4.9c0.5,1.6,1,3.3,1.5,4.9l2.1,6.9h0.2l1.7-5L283.4,358.1z"/> </g> </g> </svg>