<svg xmlns="http://www.w3.org/2000/svg" viewBox="0 0 640 360"><defs><linearGradient id="g" x1="0" y1="0" x2="1" y2="1"><stop stop-color="#4361EE" stop-opacity=".18"/><stop offset="1" stop-color="#C9D4FF" stop-opacity="0"/></linearGradient></defs><g>
<path d="M-40 290 C 180 220,260 120.0,690 90" stroke="url(#g)" stroke-width="1.2" fill="none"/>
<path d="M-32 288 C 180 219,260 120.5,690 92" stroke="url(#g)" stroke-width="1.2" fill="none"/>
<path d="M-24 286 C 180 218,260 121.0,690 94" stroke="url(#g)" stroke-width="1.2" fill="none"/>
<path d="M-16 284 C 180 217,260 121.5,690 96" stroke="url(#g)" stroke-width="1.2" fill="none"/>
<path d="M-8 282 C 180 216,260 122.0,690 98" stroke="url(#g)" stroke-width="1.2" fill="none"/>
<path d="M0 280 C 180 215,260 122.5,690 100" stroke="url(#g)" stroke-width="1.2" fill="none"/>
<path d="M8 278 C 180 214,260 123.0,690 102" stroke="url(#g)" stroke-width="1.2" fill="none"/>
<path d="M16 276 C 180 213,260 123.5,690 104" stroke="url(#g)" stroke-width="1.2" fill="none"/>
<path d="M24 274 C 180 212,260 124.0,690 106" stroke="url(#g)" stroke-width="1.2" fill="none"/>
<path d="M32 272 C 180 211,260 124.5,690 108" stroke="url(#g)" stroke-width="1.2" fill="none"/>
<path d="M40 270 C 180 210,260 125.0,690 110" stroke="url(#g)" stroke-width="1.2" fill="none"/>
<path d="M48 268 C 180 209,260 125.5,690 112" stroke="url(#g)" stroke-width="1.2" fill="none"/>
<path d="M56 266 C 180 208,260 126.0,690 114" stroke="url(#g)" stroke-width="1.2" fill="none"/>
<path d="M64 264 C 180 207,260 126.5,690 116" stroke="url(#g)" stroke-width="1.2" fill="none"/>
<path d="M72 262 C 180 206,260 127.0,690 118" stroke="url(#g)" stroke-width="1.2" fill="none"/>
<path d="M80 260 C 180 205,260 127.5,690 120" stroke="url(#g)" stroke-width="1.2" fill="none"/>
<path d="M88 258 C 180 204,260 128.0,690 122" stroke="url(#g)" stroke-width="1.2" fill="none"/>
<path d="M96 256 C 180 203,260 128.5,690 124" stroke="url(#g)" stroke-width="1.2" fill="none"/>
<path d="M104 254 C 180 202,260 129.0,690 126" stroke="url(#g)" stroke-width="1.2" fill="none"/>
<path d="M112 252 C 180 201,260 129.5,690 128" stroke="url(#g)" stroke-width="1.2" fill="none"/>
<path d="M120 250 C 180 200,260 130.0,690 130" stroke="url(#g)" stroke-width="1.2" fill="none"/>
<path d="M128 248 C 180 199,260 130.5,690 132" stroke="url(#g)" stroke-width="1.2" fill="none"/>
<path d="M136 246 C 180 198,260 131.0,690 134" stroke="url(#g)" stroke-width="1.2" fill="none"/>
<path d="M144 244 C 180 197,260 131.5,690 136" stroke="url(#g)" stroke-width="1.2" fill="none"/>
<path d="M152 242 C 180 196,260 132.0,690 138" stroke="url(#g)" stroke-width="1.2" fill="none"/>
<path d="M160 240 C 180 195,260 132.5,690 140" stroke="url(#g)" stroke-width="1.2" fill="none"/>
<path d="M168 238 C 180 194,260 133.0,690 142" stroke="url(#g)" stroke-width="1.2" fill="none"/>
<path d="M176 236 C 180 193,260 133.5,690 144" stroke="url(#g)" stroke-width="1.2" fill="none"/>
<path d="M184 234 C 180 192,260 134.0,690 146" stroke="url(#g)" stroke-width="1.2" fill="none"/>
<path d="M192 232 C 180 191,260 134.5,690 148" stroke="url(#g)" stroke-width="1.2" fill="none"/>
<path d="M200 230 C 180 190,260 135.0,690 150" stroke="url(#g)" stroke-width="1.2" fill="none"/>
<path d="M208 228 C 180 189,260 135.5,690 152" stroke="url(#g)" stroke-width="1.2" fill="none"/>
<path d="M216 226 C 180 188,260 136.0,690 154" stroke="url(#g)" stroke-width="1.2" fill="none"/>
<path d="M224 224 C 180 187,260 136.5,690 156" stroke="url(#g)" stroke-width="1.2" fill="none"/>
<path d="M232 222 C 180 186,260 137.0,690 158" stroke="url(#g)" stroke-width="1.2" fill="none"/>
<path d="M240 220 C 180 185,260 137.5,690 160" stroke="url(#g)" stroke-width="1.2" fill="none"/>
<path d="M248 218 C 180 184,260 138.0,690 162" stroke="url(#g)" stroke-width="1.2" fill="none"/>
<path d="M256 216 C 180 183,260 138.5,690 164" stroke="url(#g)" stroke-width="1.2" fill="none"/>
<path d="M264 214 C 180 182,260 139.0,690 166" stroke="url(#g)" stroke-width="1.2" fill="none"/>
<path d="M272 212 C 180 181,260 139.5,690 168" stroke="url(#g)" stroke-width="1.2" fill="none"/>
</g></svg>